# xmcd CD database file
#
# Track frame offsets:
#	150
#	16451
#	28845
#	43662
#	56632
#	70125
#	80554
#	89663
#	98440
#	109835
#	121323
#	131810
#	145490
#	159503
#	170948
#	183374
#	198648
#	211644
#	224907
#	237460
#	250557
#	264544
#
# Disc length: 3719 seconds
#
# Revision: 1
# Processed by: cddbd v1.5.2PL0 Copyright (c) Steve Scherf et al.
# Submitted via: CDex 1.50
#
DISCID=4f0e8516
DTITLE=B. B. King - Blues D'Azur CD 2
DYEAR=2005
DGENRE=Blues
TTITLE0=Other Night Blues 
TTITLE1=Mistreated Woman 
TTITLE2=B.B. Boogie 
TTITLE3=Walkin' and Cryin' 
TTITLE4=Questionaire Blues 
TTITLE5=Fine Looking Woman 
TTITLE6=My Baby Is Gone 
TTITLE7=New Way of Driving 
TTITLE8=She's Dynamite 
TTITLE9=Pray for You 
TTITLE10=That Ain't the Way to Do It 
TTITLE11=Three O'Clock Blues 
TTITLE12=She Don't Move Me No More 
TTITLE13=Shake It Up and Go 
TTITLE14=Gotta Find My Baby 
TTITLE15=My Own Fault, Darlin' 
TTITLE16=Someday, Somewhere 
TTITLE17=Woke Up This Morning 
TTITLE18=Highway Bound 
TTITLE19=Please Love Me 
TTITLE20=Blind Love 
TTITLE21=Why Did You Leave Me 
EXTD=YEAR: 2005
EXTT0=
EXTT1=
EXTT2=
EXTT3=
EXTT4=
EXTT5=
EXTT6=
EXTT7=
EXTT8=
EXTT9=
EXTT10=
EXTT11=
EXTT12=
EXTT13=
EXTT14=
EXTT15=
EXTT16=
EXTT17=
EXTT18=
EXTT19=
EXTT20=
EXTT21=
PLAYORDER=
